<svg version="1.2" xmlns="http://www.w3.org/2000/svg" viewBox="0 0 2048 2048" width="2048" height="2048">
	<style>
		.s0 { fill: #ffffff } 
	</style>
	<g id="Layer 1">
		<path class="s0" d="m840.94 335.1c3.4 1.13 6.81 2.27 10.32 3.44 147.43 50.94 275.05 154.23 374.28 272.69 3.03 3.57 6.05 7.14 9.17 10.82 96.41 116.84 192.4 276.56 179.51 433.19-5.01 36.76-25.98 63.62-54.41 86.18-38.06 25.14-75.43 33.36-120.27 25.01-29.04-8.57-46.84-27.48-63.31-52.26-8.35-20.58-13.69-41.66-19.1-63.18-23.1-83.98-54.78-156.04-108.17-224.97-5.5-7.23-10.71-14.68-15.89-22.14-67.11-95.42-155.04-165.33-261.16-212.38-4.99-2.25-9.97-4.51-15.11-6.83-64.46-24.43-153.36-23.96-217.93 0.67-4.46 2.03-8.92 4.07-13.51 6.16-4.6 2.04-9.21 4.07-13.96 6.17-88.69 43.66-141.97 128.08-174.83 218.4-5.15 17.08-9.42 34.16-13.37 51.56-1.47 5.8-2.94 11.59-4.45 17.57-34.47 157.59-11.06 332.78 73.48 470.58 82.97 127.7 210 203.45 357.51 236.47 63.82 12.75 125.6 16.68 190.43 16.24 4.04-0.02 8.07-0.04 12.23-0.06 69.26-0.34 136.67-4.43 205.31-13.93 219.76-30.35 435.65-45.94 639.81 57.13 2.95 1.46 5.91 2.92 8.95 4.43 82.6 41.04 162.53 93.63 199.01 182.23 10.91 41.63 10.12 93.51-8.44 132.61-22.02 33.83-52.16 63.3-92.18 72.9-55 9.24-100.26 4.89-146.79-27.29-21.03-16.25-40.84-33.84-60.58-51.61-101-90.32-209.87-136.79-346.21-137.3-5.3-0.03-5.3-0.03-10.7-0.05-93.46-0.14-185.51 11.58-278.1 23.22-106.68 13.23-218.82 15.76-325.09-1.91-5.6-0.87-5.6-0.87-11.3-1.76-180.99-29.05-328.69-106.28-462.06-229.99-4.46-4.06-4.46-4.06-9.01-8.2-107.74-102.2-163.47-245.28-198.08-386.26-0.94-3.69-1.88-7.39-2.84-11.19-31.33-130.04-22.05-289.87 12.7-417.79 0.89-3.51 1.79-7.01 2.71-10.62 42.04-160.85 148.68-310.56 292.27-394.83 47.98-26.79 95.84-48.08 148.79-62.98 5.63-1.59 11.25-3.18 17.05-4.82 101.85-23.61 214.38-18.26 313.32 14.68z"/>
		<path class="s0" d="m1565.77 152.66c13.24 11.33 26.18 22.86 38.92 34.75 8.48 7.85 17.04 15.12 26.1 22.26 122.68 106.32 186.31 275.23 211.1 431.14 0.57 3.36 1.15 6.71 1.73 10.17 26.98 161.1 8.17 344.42-60.9 492.78-2.63 5.79-5.26 11.58-7.97 17.54-61.54 129.45-161.48 231.76-287.87 298.03-3.21 1.69-6.42 3.38-9.72 5.12-44.53 23.1-89.3 38.16-138.21 49.12-3.63 0.86-7.27 1.72-11.01 2.61-16.92 2.87-33.58 3.3-50.68 3.49-3.56 0.05-7.12 0.1-10.78 0.15-146.56 1.58-146.56 1.58-213.52-21.05-6.07-2.03-12.14-4.06-18.39-6.16-18.93-7.02-37.3-14.86-55.57-23.42-3.56-1.66-7.13-3.33-10.8-5.04-113.32-53.98-208.01-132.4-289.98-226.71-2.81-3.17-5.62-6.34-8.51-9.61-16.14-18.62-16.14-18.62-16.14-29.84-3.26 0-6.51 0-9.87 0-7.3-8.87-7.3-8.87-15.71-21.26-3.08-4.53-6.16-9.05-9.33-13.71-11.88-17.98-23.61-36.03-35.03-54.3q-9.18-14.61-18.68-29.01c-27.43-42.43-46.79-85.91-64.24-133.19-3.23-8.35-3.23-8.35-6.53-16.87-20.17-59.18-27.58-137.04-0.56-195.15 18.28-29.82 42.06-54.09 75.37-66.7 30.56-6.71 62.62-7.71 91.36 5.06 4.27 4.07 8.54 8.14 12.94 12.33 2.81 2.36 5.63 4.71 8.53 7.14 24.64 23.38 32.43 49.82 40.89 81.7 33.46 124.54 103.35 233.28 192.19 325.35 3.34 3.59 6.67 7.18 10.11 10.88 27.9 29.29 61.96 59.67 98.37 77.87 0 3.26 0 6.51 0 9.86 4.24 1.29 8.48 2.57 12.84 3.9 17.14 6.11 31.93 13.87 47.87 22.61 80.36 41.62 169.74 49.57 256.57 24.02 70.92-24.2 139.22-88.94 174.22-154.88 7.54-16.02 14.55-32.14 21.3-48.5 1.88-4.39 3.75-8.79 5.69-13.31 63.32-152.22 61.02-328.7 0.86-481.68-16.8-40.64-36.72-77.5-64.1-112.04-6.55-9.32-6.55-9.32-6.55-19.19-3.25 0-6.51 0-9.86 0-4.96-5.44-9.63-11.15-14.18-16.95-66.17-77.2-176.67-128.74-276.74-140.83-23.51-1.16-47.03-1.18-70.57-1.24-3.29-0.01-6.57-0.02-9.96-0.03-47.08-0.06-92.01 2.94-138.08 12.82-31.93 5.72-58.71 4.32-89.87-5.7-59.91-18.16-122.11-31.49-184.91-31.43-3.62 0-7.24-0.01-10.97-0.01-29.77 0.28-58.2 3.63-87.57 8.64-13.35 1.98-25.75 2.55-39.21 2.16 0-9.87 0-9.87 6.72-16.82q16.31-13.84 32.72-27.56c4-3.43 7.99-6.87 12.1-10.4 82.14-69.35 171.61-119.81 273.89-152.32 5.67-1.87 11.34-3.75 17.18-5.68 226.08-70.32 497.16-30.15 683 119.09z"/>
	</g>
</svg>